<svg xmlns="http://www.w3.org/2000/svg">
	<defs>
		<symbol id="add" viewBox="0 0 24 24">
			<path d="M19,13H13V19H11V13H5V11H11V5H13V11H19V13Z" />
		</symbol>
		<symbol id="close" viewBox="0 0 24 24">
			<path
				d="M19,6.41L17.59,5L12,10.59L6.41,5L5,6.41L10.59,12L5,17.59L6.41,19L12,13.41L17.59,19L19,17.59L13.41,12L19,6.41Z" />
		</symbol>
		<symbol id="email" viewBox="0 0 24 24">
			<path
				d="M12,15C12.81,15 13.5,14.7 14.11,14.11C14.7,13.5 15,12.81 15,12C15,11.19 14.7,10.5 14.11,9.89C13.5,9.3 12.81,9 12,9C11.19,9 10.5,9.3 9.89,9.89C9.3,10.5 9,11.19 9,12C9,12.81 9.3,13.5 9.89,14.11C10.5,14.7 11.19,15 12,15M12,2C14.75,2 17.1,3 19.05,4.95C21,6.9 22,9.25 22,12V13.45C22,14.45 21.65,15.3 21,16C20.3,16.67 19.5,17 18.5,17C17.3,17 16.31,16.5 15.56,15.5C14.56,16.5 13.38,17 12,17C10.63,17 9.45,16.5 8.46,15.54C7.5,14.55 7,13.38 7,12C7,10.63 7.5,9.45 8.46,8.46C9.45,7.5 10.63,7 12,7C13.38,7 14.55,7.5 15.54,8.46C16.5,9.45 17,10.63 17,12V13.45C17,13.86 17.16,14.22 17.46,14.53C17.76,14.84 18.11,15 18.5,15C18.92,15 19.27,14.84 19.57,14.53C19.87,14.22 20,13.86 20,13.45V12C20,9.81 19.23,7.93 17.65,6.35C16.07,4.77 14.19,4 12,4C9.81,4 7.93,4.77 6.35,6.35C4.77,7.93 4,9.81 4,12C4,14.19 4.77,16.07 6.35,17.65C7.93,19.23 9.81,20 12,20H17V22H12C9.25,22 6.9,21 4.95,19.05C3,17.1 2,14.75 2,12C2,9.25 3,6.9 4.95,4.95C6.9,3 9.25,2 12,2Z" />
		</symbol>
		<symbol id="phone" viewBox="0 0 24 24">
			<path
				d="M6.6 10.8C8 13.6 10.4 15.9 13.2 17.4L15.4 15.2C15.7 14.9 16.1 14.8 16.4 15C17.5 15.4 18.7 15.6 20 15.6C20.6 15.6 21 16 21 16.6V20C21 20.6 20.6 21 20 21C10.6 21 3 13.4 3 4C3 3.4 3.5 3 4 3H7.5C8.1 3 8.5 3.4 8.5 4C8.5 5.2 8.7 6.4 9.1 7.6C9.2 7.9 9.1 8.3 8.9 8.6L6.6 10.8M14 3C13.4 3 13 3.4 13 4S13.4 5 14 5 15 4.6 15 4 14.6 3 14 3M17 3C16.4 3 16 3.4 16 4S16.4 5 17 5 18 4.6 18 4 17.6 3 17 3M20 3C19.4 3 19 3.4 19 4S19.4 5 20 5 21 4.6 21 4 20.6 3 20 3M14 6C13.4 6 13 6.4 13 7S13.4 8 14 8 15 7.6 15 7 14.6 6 14 6M17 6C16.4 6 16 6.4 16 7S16.4 8 17 8 18 7.6 18 7 17.6 6 17 6M20 6C19.4 6 19 6.4 19 7S19.4 8 20 8 21 7.6 21 7 20.6 6 20 6M14 9C13.4 9 13 9.4 13 10S13.4 11 14 11 15 10.6 15 10 14.6 9 14 9M17 9C16.4 9 16 9.4 16 10S16.4 11 17 11 18 10.6 18 10 17.6 9 17 9M20 9C19.4 9 19 9.4 19 10S19.4 11 20 11 21 10.6 21 10 20.6 9 20 9Z" />
		</symbol>
		<symbol id="github" viewBox="0 0 24 24">
			<path
				d="M12,2A10,10 0 0,0 2,12C2,16.42 4.87,20.17 8.84,21.5C9.34,21.58 9.5,21.27 9.5,21C9.5,20.77 9.5,20.14 9.5,19.31C6.73,19.91 6.14,17.97 6.14,17.97C5.68,16.81 5.03,16.5 5.03,16.5C4.12,15.88 5.1,15.9 5.1,15.9C6.1,15.97 6.63,16.93 6.63,16.93C7.5,18.45 8.97,18 9.54,17.76C9.63,17.11 9.89,16.67 10.17,16.42C7.95,16.17 5.62,15.31 5.62,11.5C5.62,10.39 6,9.5 6.65,8.79C6.55,8.54 6.2,7.5 6.75,6.15C6.75,6.15 7.59,5.88 9.5,7.17C10.29,6.95 11.15,6.84 12,6.84C12.85,6.84 13.71,6.95 14.5,7.17C16.41,5.88 17.25,6.15 17.25,6.15C17.8,7.5 17.45,8.54 17.35,8.79C18,9.5 18.38,10.39 18.38,11.5C18.38,15.32 16.04,16.16 13.81,16.41C14.17,16.72 14.5,17.33 14.5,18.26C14.5,19.6 14.5,20.68 14.5,21C14.5,21.27 14.66,21.59 15.17,21.5C19.14,20.16 22,16.42 22,12A10,10 0 0,0 12,2Z" />
		</symbol>
		<symbol id="printer" viewBox="0 0 24 24">
			<path
				d="M18,3H6V7H18M19,12A1,1 0 0,1 18,11A1,1 0 0,1 19,10A1,1 0 0,1 20,11A1,1 0 0,1 19,12M16,19H8V14H16M19,8H5A3,3 0 0,0 2,11V17H6V21H18V17H22V11A3,3 0 0,0 19,8Z" />
		</symbol>
	</defs>
</svg>